<svg width="720" height="480" viewBox="0 0 720 480" fill="none" xmlns="http://www.w3.org/2000/svg">
<g clip-path="url(#clip0_22_327)">
<rect width="720" height="480" fill="#EDEEF0"/>
<rect x="-1" width="721.5" height="30" fill="#222222"/>
<path fill-rule="evenodd" clip-rule="evenodd" d="M33.75 19.5C36.2353 19.5 38.25 17.4853 38.25 15C38.25 12.5147 36.2353 10.5 33.75 10.5C31.2647 10.5 29.25 12.5147 29.25 15C29.25 17.4853 31.2647 19.5 33.75 19.5Z" fill="#FF5F57"/>
<path d="M38.0625 15C38.0625 17.3817 36.1317 19.3125 33.75 19.3125C31.3683 19.3125 29.4375 17.3817 29.4375 15C29.4375 12.6183 31.3683 10.6875 33.75 10.6875C36.1317 10.6875 38.0625 12.6183 38.0625 15Z" stroke="black" stroke-opacity="0.12" stroke-width="0.375"/>
<path fill-rule="evenodd" clip-rule="evenodd" d="M48.75 19.5C51.2353 19.5 53.25 17.4853 53.25 15C53.25 12.5147 51.2353 10.5 48.75 10.5C46.2647 10.5 44.25 12.5147 44.25 15C44.25 17.4853 46.2647 19.5 48.75 19.5Z" fill="#FEBC2E"/>
<path d="M53.0625 15C53.0625 17.3817 51.1317 19.3125 48.75 19.3125C46.3683 19.3125 44.4375 17.3817 44.4375 15C44.4375 12.6183 46.3683 10.6875 48.75 10.6875C51.1317 10.6875 53.0625 12.6183 53.0625 15Z" stroke="black" stroke-opacity="0.12" stroke-width="0.375"/>
<path fill-rule="evenodd" clip-rule="evenodd" d="M63.75 19.5C66.2353 19.5 68.25 17.4853 68.25 15C68.25 12.5147 66.2353 10.5 63.75 10.5C61.2647 10.5 59.25 12.5147 59.25 15C59.25 17.4853 61.2647 19.5 63.75 19.5Z" fill="#28C840"/>
<path d="M68.0625 15C68.0625 17.3817 66.1317 19.3125 63.75 19.3125C61.3683 19.3125 59.4375 17.3817 59.4375 15C59.4375 12.6183 61.3683 10.6875 63.75 10.6875C66.1317 10.6875 68.0625 12.6183 68.0625 15Z" stroke="black" stroke-opacity="0.12" stroke-width="0.375"/>
<rect x="-1" y="30" width="721.5" height="42" fill="#2C2C2C"/>
<rect x="51" y="30" width="42" height="42" fill="#18A0FB"/>
<g filter="url(#filter0_d_22_327)">
<rect y="72" width="144" height="408" fill="white"/>
</g>
<g filter="url(#filter1_d_22_327)">
<rect x="576" y="72" width="144" height="408" fill="white"/>
</g>
</g>
<defs>
<filter id="filter0_d_22_327" x="-6" y="69" width="156" height="420" filterUnits="userSpaceOnUse" color-interpolation-filters="sRGB">
<feFlood flood-opacity="0" result="BackgroundImageFix"/>
<feColorMatrix in="SourceAlpha" type="matrix" values="0 0 0 0 0 0 0 0 0 0 0 0 0 0 0 0 0 0 127 0" result="hardAlpha"/>
<feOffset dy="3"/>
<feGaussianBlur stdDeviation="3"/>
<feComposite in2="hardAlpha" operator="out"/>
<feColorMatrix type="matrix" values="0 0 0 0 0 0 0 0 0 0 0 0 0 0 0 0 0 0 0.12 0"/>
<feBlend mode="normal" in2="BackgroundImageFix" result="effect1_dropShadow_22_327"/>
<feBlend mode="normal" in="SourceGraphic" in2="effect1_dropShadow_22_327" result="shape"/>
</filter>
<filter id="filter1_d_22_327" x="570" y="69" width="156" height="420" filterUnits="userSpaceOnUse" color-interpolation-filters="sRGB">
<feFlood flood-opacity="0" result="BackgroundImageFix"/>
<feColorMatrix in="SourceAlpha" type="matrix" values="0 0 0 0 0 0 0 0 0 0 0 0 0 0 0 0 0 0 127 0" result="hardAlpha"/>
<feOffset dy="3"/>
<feGaussianBlur stdDeviation="3"/>
<feComposite in2="hardAlpha" operator="out"/>
<feColorMatrix type="matrix" values="0 0 0 0 0 0 0 0 0 0 0 0 0 0 0 0 0 0 0.12 0"/>
<feBlend mode="normal" in2="BackgroundImageFix" result="effect1_dropShadow_22_327"/>
<feBlend mode="normal" in="SourceGraphic" in2="effect1_dropShadow_22_327" result="shape"/>
</filter>
<clipPath id="clip0_22_327">
<rect width="720" height="480" fill="white"/>
</clipPath>
</defs>
</svg>